<svg width="859" height="300" viewBox="0 0 859 300" fill="none" xmlns="http://www.w3.org/2000/svg">
<g clip-path="url(#clip0_4_2)">
<path d="M336.45 212H322.926L304.733 170.623C304.196 169.442 303.499 167.832 302.64 165.793C301.889 163.754 301.03 161.5 300.064 159.031C299.098 156.562 298.078 153.986 297.005 151.303C295.932 148.512 294.912 145.722 293.946 142.931C293.946 145.722 293.892 148.512 293.785 151.303C293.785 153.986 293.731 156.562 293.624 159.031C293.517 161.392 293.409 163.539 293.302 165.471C293.302 167.296 293.302 168.745 293.302 169.818L291.692 212H273.66L280.1 102.681H295.073L322.604 170.945C323.57 173.414 324.643 176.097 325.824 178.995C327.112 181.893 328.293 184.737 329.366 187.528C330.439 184.737 331.566 181.947 332.747 179.156C333.928 176.258 335.055 173.521 336.128 170.945L363.82 102.681H378.471L384.911 212H367.04L365.269 170.301C365.162 167.618 365.001 163.807 364.786 158.87C364.679 153.825 364.571 148.727 364.464 143.575C363.498 146.258 362.478 148.942 361.405 151.625C360.439 154.308 359.527 156.831 358.668 159.192C357.809 161.553 357.004 163.7 356.253 165.632C355.502 167.564 354.911 169.067 354.482 170.14L336.45 212ZM399.19 173.843C399.19 166.652 400.156 160.319 402.088 154.845C404.127 149.371 406.864 144.809 410.299 141.16C413.841 137.403 417.973 134.613 422.696 132.788C427.418 130.856 432.517 129.89 437.991 129.89C442.821 129.89 446.899 130.48 450.227 131.661C453.661 132.842 456.452 134.452 458.599 136.491C460.745 138.53 462.302 140.945 463.268 143.736C464.341 146.527 464.878 149.532 464.878 152.752C464.878 156.616 463.804 160.319 461.658 163.861C459.511 167.296 456.398 170.355 452.32 173.038C448.348 175.614 443.518 177.707 437.83 179.317C432.141 180.82 425.755 181.625 418.671 181.732C418.993 184.201 419.476 186.562 420.12 188.816C420.871 190.963 421.891 192.895 423.179 194.612C424.574 196.222 426.345 197.51 428.492 198.476C430.638 199.442 433.322 199.925 436.542 199.925C438.903 199.925 441.425 199.657 444.109 199.12C446.792 198.583 449.261 197.939 451.515 197.188C454.198 196.329 456.828 195.363 459.404 194.29L464.234 205.721C461.443 207.116 458.438 208.351 455.218 209.424C452.427 210.39 449.207 211.249 445.558 212C441.908 212.751 438.044 213.127 433.966 213.127C427.74 213.127 422.427 212.215 418.027 210.39C413.626 208.458 410.03 205.775 407.24 202.34C404.449 198.905 402.41 194.773 401.122 189.943C399.834 185.113 399.19 179.746 399.19 173.843ZM436.542 142.448C433 142.448 430.048 143.307 427.687 145.024C425.433 146.634 423.608 148.781 422.213 151.464C420.817 154.04 419.798 156.992 419.154 160.319C418.617 163.539 418.295 166.813 418.188 170.14C423.34 169.925 427.687 169.281 431.229 168.208C434.878 167.027 437.83 165.632 440.084 164.022C442.338 162.305 443.948 160.48 444.914 158.548C445.987 156.616 446.524 154.684 446.524 152.752C446.524 149.639 445.611 147.171 443.787 145.346C441.962 143.414 439.547 142.448 436.542 142.448ZM469.69 131.822H484.18L487.4 112.985L502.534 109.604V131.822H522.337L520.083 144.863H502.534V192.519C502.534 195.31 503.285 197.134 504.788 197.993C506.291 198.744 507.954 199.12 509.779 199.12C511.282 199.12 512.784 199.013 514.287 198.798C515.79 198.583 517.131 198.315 518.312 197.993C519.707 197.671 521.049 197.295 522.337 196.866L525.396 208.941L523.947 209.424C522.981 209.853 521.532 210.336 519.6 210.873C517.775 211.302 515.575 211.678 512.999 212C510.53 212.429 507.793 212.644 504.788 212.644C501.783 212.644 498.992 212.322 496.416 211.678C493.947 211.034 491.801 210.014 489.976 208.619C488.151 207.116 486.702 205.238 485.629 202.984C484.663 200.73 484.18 197.939 484.18 194.612V144.863H469.69V131.822ZM599.083 173.199C599.083 179.639 599.458 185.059 600.21 189.46C601.068 193.753 601.981 197.242 602.947 199.925C604.127 203.145 605.415 205.667 606.811 207.492L592.482 213.288C591.086 211.893 589.798 210.229 588.618 208.297C587.652 206.58 586.739 204.54 585.881 202.179C585.022 199.71 584.485 196.812 584.271 193.485C582.446 199.925 579.494 204.809 575.416 208.136C571.444 211.356 566.024 212.966 559.155 212.966C554.11 212.966 549.709 212.054 545.953 210.229C542.303 208.297 539.244 205.614 536.776 202.179C534.307 198.637 532.482 194.397 531.302 189.46C530.121 184.523 529.531 179.049 529.531 173.038C529.531 166.92 530.443 161.285 532.268 156.133C534.2 150.874 536.829 146.366 540.157 142.609C543.591 138.852 547.67 135.901 552.393 133.754C557.115 131.607 562.321 130.534 568.01 130.534C571.23 130.534 574.557 130.802 577.992 131.339C581.534 131.768 584.807 132.251 587.813 132.788C590.818 133.325 593.34 133.861 595.38 134.398C597.526 134.827 598.761 135.096 599.083 135.203V173.199ZM562.214 200.086C564.897 200.086 567.366 199.174 569.62 197.349C571.874 195.524 573.806 193.163 575.416 190.265C577.133 187.26 578.421 183.879 579.28 180.122C580.246 176.258 580.729 172.34 580.729 168.369V145.185C579.655 144.863 578.045 144.487 575.899 144.058C573.752 143.629 571.82 143.414 570.103 143.414C566.024 143.414 562.643 144.112 559.96 145.507C557.384 146.902 555.291 148.834 553.681 151.303C552.071 153.772 550.944 156.723 550.3 160.158C549.656 163.593 549.334 167.349 549.334 171.428C549.334 175.185 549.441 178.78 549.656 182.215C549.87 185.65 550.407 188.709 551.266 191.392C552.232 194.075 553.573 196.222 555.291 197.832C557.008 199.335 559.316 200.086 562.214 200.086Z" fill="white"/>
<path class="metalift-lift-text" d="M648.531 170.644C642.413 170.644 637.905 168.98 635.007 165.653C632.109 162.218 630.66 157.871 630.66 152.612V56.495L649.014 53.114V150.841C649.014 153.31 649.497 155.027 650.463 155.993C651.429 156.959 652.824 157.442 654.649 157.442C655.722 157.442 656.742 157.388 657.708 157.281C658.781 157.174 659.747 157.013 660.606 156.798C661.572 156.583 662.431 156.369 663.182 156.154L665.436 167.746C664.041 168.283 662.484 168.766 660.767 169.195C659.264 169.624 657.493 169.946 655.454 170.161C653.415 170.483 651.107 170.644 648.531 170.644ZM695.224 170.644C689.535 170.644 685.188 168.98 682.183 165.653C679.177 162.218 677.675 157.818 677.675 152.451V89.822H696.029V150.841C696.029 153.31 696.404 154.973 697.156 155.832C697.907 156.691 699.034 157.12 700.537 157.12C700.966 157.12 701.395 157.12 701.825 157.12C702.361 157.12 702.844 157.066 703.274 156.959C703.703 156.959 704.186 156.905 704.723 156.798L706.655 168.39C705.903 168.819 704.937 169.195 703.757 169.517C702.791 169.839 701.556 170.107 700.054 170.322C698.658 170.537 697.048 170.644 695.224 170.644ZM687.174 54.08C690.608 54.08 693.238 55.0997 695.063 57.139C696.887 59.1783 697.8 61.808 697.8 65.028C697.8 68.248 696.834 70.9313 694.902 73.078C693.077 75.2247 690.34 76.298 686.691 76.298C683.256 76.298 680.573 75.2783 678.641 73.239C676.816 71.0923 675.904 68.5163 675.904 65.511C675.904 62.1837 676.816 59.4467 678.641 57.3C680.573 55.1533 683.417 54.08 687.174 54.08ZM761.226 70.985C760.904 70.663 759.884 70.0727 758.167 69.214C756.557 68.3553 755.001 67.926 753.498 67.926C752.532 67.926 751.351 68.087 749.956 68.409C748.561 68.6237 747.219 69.214 745.931 70.18C744.643 71.0387 743.516 72.3267 742.55 74.044C741.691 75.7613 741.262 78.0153 741.262 80.806C741.262 81.9867 741.316 83.3283 741.423 84.831C741.638 86.3337 742.013 87.9973 742.55 89.822H762.514L760.26 102.863H743.516V165.975C743.516 172.415 742.657 177.782 740.94 182.075C739.33 186.476 737.183 190.125 734.5 193.023C731.817 196.028 728.811 198.497 725.484 200.429C722.264 202.468 719.044 204.293 715.824 205.903L708.418 193.667C712.389 191.628 715.502 189.427 717.756 187.066C720.01 184.812 721.674 182.504 722.747 180.143C723.928 177.889 724.625 175.689 724.84 173.542C725.055 171.395 725.162 169.463 725.162 167.746V102.863H710.672V89.822H724.679C724.25 88.212 723.928 86.5483 723.713 84.831C723.606 83.1137 723.552 81.5037 723.552 80.001C723.552 75.7077 724.303 71.8973 725.806 68.57C727.416 65.2427 729.509 62.5057 732.085 60.359C734.768 58.2123 737.827 56.6023 741.262 55.529C744.804 54.3483 748.453 53.758 752.21 53.758C756.396 53.758 759.831 54.4557 762.514 55.851C765.197 57.139 767.398 58.6953 769.115 60.52L761.226 70.985ZM766.63 89.822H781.12L784.34 70.985L799.474 67.604V89.822H819.277L817.023 102.863H799.474V150.519C799.474 153.31 800.225 155.134 801.728 155.993C803.23 156.744 804.894 157.12 806.719 157.12C808.221 157.12 809.724 157.013 811.227 156.798C812.729 156.583 814.071 156.315 815.252 155.993C816.647 155.671 817.989 155.295 819.277 154.866L822.336 166.941L820.887 167.424C819.921 167.853 818.472 168.336 816.54 168.873C814.715 169.302 812.515 169.678 809.939 170C807.47 170.429 804.733 170.644 801.728 170.644C798.722 170.644 795.932 170.322 793.356 169.678C790.887 169.034 788.74 168.014 786.916 166.619C785.091 165.116 783.642 163.238 782.569 160.984C781.603 158.73 781.12 155.939 781.12 152.612V102.863H766.63V89.822Z" fill="white"/>
<rect width="201.481" height="29.0159" rx="14.508" transform="matrix(0.423029 0.906116 -0.906499 0.422208 64.3029 54.1838)" fill="#26B5C9"/>
<rect x="76.4746" y="116.377" rx="11.024" width="105.354" height="22.048" fill="#26B5C9"/>
<rect class="metalift-arrow-line" width="201.481" height="29.0159" rx="14.508" transform="matrix(0.423029 -0.906116 0.906499 0.422208 111.808 235.591)" fill="url(#paint0_linear_4_2)"/>
<g class="metalift-arrow" fill="#F2C94C">
<rect width="57.5754" height="15.1746" rx="7.58732" transform="matrix(-0.259105 -0.965849 0.966002 -0.258533 214.65 112.271)"/>
<rect width="57.6268" height="15.1636" rx="7.58178" transform="matrix(0.906499 -0.422208 0.423029 0.906116 159.968 76.3305)"/>
</g>
</g>
<defs>
<linearGradient id="paint0_linear_4_2" x1="40.6924" y1="12.8698" x2="155.479" y2="13.3788" gradientUnits="userSpaceOnUse">
<stop stop-color="#26B5C9"/>
<stop offset="1" stop-color="#F2C94C"/>
</linearGradient>
<clipPath id="clip0_4_2">
<rect width="859" height="300" fill="white"/>
</clipPath>
</defs>
</svg>
